PathFileType        4      (X/Y/Z)      C:\Users\pc\Desktop\IMUTRC\Sujet_04\Sujet_04_velo_60.trc         
DataRate	CameraRate	NumFrames	NumMarkers	Units	OrigDataRate	OrigDataStartFrame	OrigNumFrames
60.0	60.0	4	64	mm	60.0	472	1257
Frame#	Time	pHipOrigin			pRightASI			pLeftASI			pRightCSI			pLeftCSI			pRightIschialTub			pLeftIschialTub			pSacrum			pL5SpinalProcess			pL3SpinalProcess			pT12SpinalProcess			pIJ			pT4SpinalProcess			pT8SpinalProcess			pPX			pC7SpinalProcess			pTopOfHead			pRightAuricularis			pLeftAuricularis			pBackOfHead			pRightAcromion			pLeftAcromion			pRightArmLatEpicondyle			pRightArmMedEpicondyle			pLeftArmLatEpicondyle			pLeftArmMedEpicondyle			pRightUlnarStyloid			pRightRadialStyloid			pRightOlecranon			pLeftUlnarStyloid			pLeftRadialStyloid			pLeftOlecranon			pRightTopOfHand			pRightPinky			pRightBallHand			pLeftTopOfHand			pLeftPinky			pLeftBallHand			pRightGreaterTrochanter			pRightKneeLatEpicondyle			pRightKneeMedEpicondyle			pRightPatella			pLeftGreaterTrochanter			pLeftKneeLatEpicondyle			pLeftKneeMedEpicondyle			pLeftPatella			pRightTibialTub			pRightLatMalleolus			pRightMedMalleolus			pLeftTibialTub			pLeftLatMalleolus			pLeftMedMalleolus			pRightHeelFoot			pRightFirstMetatarsal			pRightFifthMetatarsal			pRightPivotFoot			pRightHeelCenter			pRightToe			pLeftHeelFoot			pLeftFirstMetatarsal			pLeftFifthMetatarsal			pLeftPivotFoot			pLeftHeelCenter			pLeftToe			
		X1	Y1	Z1	X2	Y2	Z2	X3	Y3	Z3	X4	Y4	Z4	X5	Y5	Z5	X6	Y6	Z6	X7	Y7	Z7	X8	Y8	Z8	X9	Y9	Z9	X10	Y10	Z10	X11	Y11	Z11	X12	Y12	Z12	X13	Y13	Z13	X14	Y14	Z14	X15	Y15	Z15	X16	Y16	Z16	X17	Y17	Z17	X18	Y18	Z18	X19	Y19	Z19	X20	Y20	Z20	X21	Y21	Z21	X22	Y22	Z22	X23	Y23	Z23	X24	Y24	Z24	X25	Y25	Z25	X26	Y26	Z26	X27	Y27	Z27	X28	Y28	Z28	X29	Y29	Z29	X30	Y30	Z30	X31	Y31	Z31	X32	Y32	Z32	X33	Y33	Z33	X34	Y34	Z34	X35	Y35	Z35	X36	Y36	Z36	X37	Y37	Z37	X38	Y38	Z38	X39	Y39	Z39	X40	Y40	Z40	X41	Y41	Z41	X42	Y42	Z42	X43	Y43	Z43	X44	Y44	Z44	X45	Y45	Z45	X46	Y46	Z46	X47	Y47	Z47	X48	Y48	Z48	X49	Y49	Z49	X50	Y50	Z50	X51	Y51	Z51	X52	Y52	Z52	X53	Y53	Z53	X54	Y54	Z54	X55	Y55	Z55	X56	Y56	Z56	X57	Y57	Z57	X58	Y58	Z58	X59	Y59	Z59	X60	Y60	Z60	X61	Y61	Z61	X62	Y62	Z62	X63	Y63	Z63	X64	Y64	Z64	
472	7.85	4.919999564491574E-14	1250.01928	5.863427156544783E-14	75.3361408590911	1328.39862	162.6423417248464	93.84924602420347	1363.70926	-128.56695640501496	38.210234811004455	1408.88862	143.15747015116787	53.3601019979878	1437.81025	-95.26272668827684	-70.89301739673034	1190.12241	48.986535354427616	-63.33641610586695	1204.61175	-70.2454106528125	-68.70912888125254	1281.85019	-0.5045311486127488	-12.828302795379864	1383.90306	14.2641516276626	53.38764994369028	1485.32844	31.232731104346254	118.94206498558881	1574.88853	46.96921266113031	383.6829442772521	1590.6899	82.92611210896169	273.6891128925617	1702.72558	77.14951770413383	196.46101789333142	1652.18402	62.94264300834094	281.1881401446809	1517.27344	63.63383738641123	323.27619200208767	1732.67401	86.10377618021172	569.9989817270405	1785.89667	124.37139629132051	475.34421016832346	1741.28776	176.98824472317168	494.07907203262533	1752.81077	41.52570334233812	462.3070542185578	1796.10766	110.33362938251958	297.5495162760618	1677.39775	270.474774056084	346.327116010864	1710.59774	-103.31972221873195	312.8947069850562	1356.80686	294.08720504029	276.574066995531	1347.2804	238.55504496659483	393.97528153466044	1393.6577	-101.82343882772736	355.068575222095	1386.18485	-47.73049536518431	410.0575609930288	1127.94374	210.0260395863355	455.96751188907996	1146.42621	230.92727129230585	273.0170770012175	1344.14294	257.9223404667326	443.4223719733359	1156.46607	10.086494990113579	493.6026276270406	1174.26399	17.351547905628735	350.6917620585667	1382.30581	-80.5464879024041	600.9858308898237	1025.1493	314.9189142664183	512.453238985975	1031.08194	258.2200147953529	465.51591736832154	1093.14651	220.83014598345724	655.5703360793077	1044.25925	25.164833272194983	551.0706726138731	1056.01045	30.639461969871093	495.03031736808737	1121.61179	33.42980398412834	9.756452699904955	1222.75194	178.20299372474676	326.977450757987	926.74728	210.41021503871323	338.66629003555346	920.58646	127.2526232939439	362.79620503711124	960.1184	167.54647294127471	27.266787243980176	1242.43234	-176.05712593811276	347.87391776027596	948.25312	-170.52049034853627	353.1619500025431	946.02837	-86.56595093148182	380.0284372451482	983.90602	-126.60923483085183	383.2329128680369	884.64834	174.15284867959605	250.7643314619295	487.50353	183.21363211448156	262.26551040745414	487.73171	117.9365247976096	367.07079224589324	891.03734	-135.39563933286428	30.130719142356526	647.68489	-186.57710295987772	33.50834208034648	638.27252	-121.05102770908339	205.39109380726848	402.84928	141.830543562663	383.2513882129837	386.47746	119.33001679294296	373.99062573054937	383.34001	203.42887549317223	402.49104439903124	382.48434	162.7592168711067	247.71050240432092	400.79567	146.38331923498913	492.236639148309	372.7297	172.27105882318412	-59.403953812873944	603.64642	-155.4582839055945	71.2700813820456	489.27191	-107.90805415566668	73.69267486493372	487.33239	-192.52419314910674	90.46661429677329	472.50079	-148.21746933894588	-25.852036618739483	577.34884	-153.89955796337637	158.4037497324743	412.48982	-144.90563655022996	
473	7.867	4.919999564491574E-14	1250.01928	5.863427156544783E-14	76.32163569442388	1327.88522	162.48562252840762	93.09631118493948	1364.16561	-128.75429907907116	39.0365052886576	1408.43226	143.4322108357395	52.72572135169391	1438.15252	-94.95381247136905	-70.58562655936801	1189.95127	49.17539251501647	-63.722679181061345	1204.83992	-69.99577093473589	-68.71464496449885	1281.79315	0.021372633580938327	-12.746419635542388	1383.84602	14.716705683146616	53.48358781520963	1485.27139	31.524557938801784	119.05909579901348	1574.83148	47.019946066389224	383.92102035656717	1590.74694	82.05614645627307	273.8553690525887	1702.72558	76.63768395451089	196.59914288122968	1652.18402	62.752268896082725	281.3910532495199	1517.27344	63.165705239699875	323.46354233658826	1732.73106	85.35083491307162	570.2651825506082	1785.95371	123.17996334082267	475.7204112355368	1741.3448	175.92790495822481	494.2578748456776	1752.92486	40.40760603022949	462.5591926699992	1796.1647	109.30293008092639	298.32906014047734	1677.34071	269.8951195187499	346.17893667542916	1710.59774	-103.94005458122004	312.8791365542733	1356.80686	293.8024023477373	276.4273957187527	1347.2804	238.38024894556395	393.63120557584494	1393.6577	-102.0560000563645	354.7682085266356	1386.29894	-47.999719966509616	409.59796227944526	1127.65852	210.18828129389667	455.5516224388525	1146.08394	231.05284962717877	272.9507719326074	1344.14294	257.75458267592506	442.6709451927285	1156.58016	10.344688657514638	492.8878731121341	1174.32104	17.65343032018916	350.3547243299747	1382.36286	-80.85941533920936	600.4247717935984	1024.86407	315.3152252612732	511.93587506478514	1030.73967	258.5796611849512	465.04928685239065	1092.80424	221.07276155963095	654.7400588096332	1044.20221	25.86151862295378	550.254457716325	1056.06749	31.175413671725266	494.2281648426655	1121.72588	33.80502203707789	10.062349566931232	1220.86947	177.94631577644674	315.2147887639486	911.80159	205.08909215881226	326.22402884064024	906.21121	121.83155575050223	352.11496808948056	944.25999	162.3604641272666	27.471223728364677	1244.02959	-176.07973459911906	358.2125172680892	961.31634	-171.60002779908763	363.500563598677	958.74933	-87.64548714946493	389.0897215110492	997.82491	-127.43610755300067	371.69025655659766	870.33013	169.09393391956198	243.26864687812184	471.98738	180.4928150102886	254.81352099868198	471.87329	115.17904308816011	376.4098474019996	903.92943	-136.15770861718346	36.598209585811816	664.34192	-185.52537902346938	40.0124971290583	655.10069	-119.95560859763953	197.11986449062223	387.61836	138.71796138834992	374.8927544579459	369.64929	116.29076259657455	365.51496116208693	366.28366	200.3388878915449	394.0520585241459	365.3139	159.71292567708326	239.47593769293118	385.16544	143.31443223571154	483.67358422977554	354.7036	169.25440043206987	-52.94350159964206	620.3605	-154.32619376101803	77.76569656975353	505.92895	-107.17779751706749	80.02755640373707	504.10352	-191.80799888263388	96.92555079090415	489.21487	-147.53090910795052	-19.4212172084168	594.06292	-152.89153686244796	164.92045143421143	429.14686	-144.41648100127182	
474	7.883	4.919999564491574E-14	1250.01928	5.863427156544783E-14	77.146390452976	1327.37182	162.31483329939812	92.3363522037726	1364.67902	-128.86127431239086	39.695003887182715	1407.91886	143.77325535635293	52.16466225546864	1438.49479	-94.55750147651418	-70.27822163368516	1189.78014	49.364250908173666	-64.10190402603232	1205.0681	-69.8264974248274	-68.71313567327392	1281.79315	0.4668948867176326	-12.744911576885805	1383.78897	15.162242024603842	53.49213410408963	1485.21435	31.88972807209088	119.04504108733158	1574.77444	47.18067328741771	384.03502739223427	1591.03216	81.21581360649364	273.81718872823114	1702.89671	76.14845886589426	196.613205253356	1652.24107	62.59153524717816	281.5065824321641	1517.44457	62.77090996394598	323.43942438435704	1732.95924	84.70087617555042	570.363617922924	1786.23893	122.05484188681112	475.81181603807363	1741.57298	174.8831432845053	494.2252170324425	1753.21009	39.392484819863654	462.60689463705614	1796.44993	108.29483944033947	298.9775172472181	1677.39775	269.4254728855059	345.73892927297044	1710.88296	-104.46443498386826	312.71840933324484	1356.8639	293.78834763605545	276.0115062685252	1347.39449	238.50582728043696	393.1997380343901	1393.88587	-102.21521798616806	354.36637378808996	1386.58416	-48.03486885266511	408.83951258950333	1127.43034	210.52682831371362	454.8735325292026	1145.79872	231.3984272167748	272.62227406501916	1344.25703	257.80681771196447	441.74473771197904	1156.86538	10.749540745941772	491.9546274011613	1174.54922	18.138648616784394	349.95992139377637	1382.64808	-80.97493809397743	599.6085645564946	1024.57885	315.8511705352513	511.11967425555747	1030.45445	259.1156141193738	464.2838053601013	1092.46198	221.49168244806046	653.6546257386358	1044.3163	26.697844680711796	549.1830805895777	1056.23863	31.850998420134317	493.25121629621265	1122.0111	34.3269113668058	10.251200299644012	1218.987	177.63891727863998	302.71476236142917	897.54043	199.86542929740773	313.0881060727259	892.40641	116.47127719242442	340.7330466595142	928.91498	157.31559765103827	27.756019993041235	1245.68389	-176.09531269034636	368.34669437983854	974.89296	-172.65695535606437	373.51066400633374	971.98369	-88.67277547565638	397.77881150175824	1012.20016	-128.17406654553304	359.4172688715929	856.46828	164.05209122109125	234.11338310878455	457.15578	177.30288274512057	245.73862467008118	456.87055	111.99613496489495	385.7925989657099	917.44901	-136.95645659507966	43.986392659338605	680.25738	-184.35261748161503	47.51771867645415	671.30137	-118.73212007840233	187.07203406803447	373.35719	135.08551013160616	364.58976057359075	353.39157	112.79795847470615	355.0949364643071	349.79776	196.79535036441763	383.66869719905424	348.65686	156.213097413312	229.340715687704	370.39087	139.75532427780132	473.1224651138765	336.96271	165.82087723690873	-45.29161520334406	635.93369	-152.9279168811944	86.08863464547807	522.18667	-106.0447320186717	88.22643186368961	520.41829	-190.6452929208844	105.29219812998468	505.58668	-146.43450698224288	-11.601566593435209	609.86429	-151.55955739079002	173.5422545746149	445.91798	-143.4597195825635	
475	7.9	4.919999564491574E-14	1250.01928	5.863427156544783E-14	77.84708259575612	1326.91546	162.17368453374223	91.65674657502166	1365.13537	-128.96122663637604	40.316845540895756	1407.51954	144.07059827405476	51.610641389466764	1438.83705	-94.2415566898274	-70.00748774113492	1189.55196	49.50940646585092	-64.40076266283518	1205.23924	-69.65018568469549	-68.71161995417292	1281.7361	0.9124248002987585	-12.743395857784787	1383.73193	15.607771938184968	53.4273383267044	1485.21435	32.16749253442011	118.99431410994876	1574.83148	47.297711761286784	384.0616364173859	1591.43148	80.44881639510336	273.65494702066997	1703.12489	75.68886015231071	196.46653397657772	1652.35516	62.41673922614724	281.5784023514522	1517.67275	62.41277806088034	323.3349402239577	1733.24446	84.04387920780579	570.2942890765562	1786.52416	120.99601784096535	475.77212765505953	1741.97229	173.94838185443143	494.0318191424267	1753.55235	38.36329357692699	462.53054164878546	1796.79219	107.31638283523006	299.50892945221364	1677.68298	268.9050916144346	345.2185480018992	1711.22523	-104.99584718886385	312.52100465120765	1357.09208	293.73058242844917	275.5519075549417	1347.56562	238.66806898799814	392.7245753178998	1394.1711	-102.33777131071508	353.8912110715996	1386.92643	-48.15742217721217	408.1177262722495	1127.31625	210.9090845968866	454.1150751788162	1145.62758	231.73698066446786	272.29378262530713	1344.54226	257.8590604084483	440.7451805045199	1157.20765	11.066993591285126	490.94805247967537	1174.7774	18.536476563308668	349.4480940720295	1382.99035	-81.14118659355995	598.6682870431745	1024.40772	316.4167627004591	510.2230854893967	1030.28331	259.64453401888056	463.4816528346795	1092.29084	221.8669005010101	652.4958493688048	1044.43039	27.44677915583054	548.082069427353	1056.46681	32.40252821321582	492.1572369363352	1122.23928	34.79806729127475	10.35266711016186	1217.27566	177.40485565179068	290.10625143436505	884.42016	194.95620316403344	299.92405213268285	879.7425	111.43245827171131	329.12558814281357	914.76791	152.534439692889	28.004143992016836	1247.28114	-176.1545795287331	377.97053937274535	988.69777	-173.43461039205533	383.0541492189485	985.50327	-89.45746108142629	405.95758346194543	1026.74655	-128.6327517845113	346.9554227934309	843.57619	159.3176534483034	223.61299097026833	443.69324	173.75232107609037	235.31157583039854	443.23688	108.53296487850415	394.9427893007829	931.13972	-137.41112861416042	52.4193374065849	694.68967	-183.08845113722384	56.03102963186856	686.01889	-117.46091550378773	175.47463755931483	360.63624	131.1150522203271	352.73720949611663	338.27474	108.96712718210588	343.08165050536	334.3957	192.9504707880115	371.69206941748763	333.08368	152.41190535149696	217.69961757607285	357.04243	135.82152331133437	460.9414149362459	320.0775	162.04229506866835	-36.42719648676685	649.68145	-151.5045249465552	96.20927566206218	537.3035	-104.63291138323845	98.18633923136917	535.36398	-189.2475346575775	115.49319892686084	520.8176	-145.01565577703064	-2.4960544476614075	623.89727	-150.11507251424553	184.31285432872022	461.83344	-142.07201689936147	
